<svg id="Layer_1" data-name="Layer 1" xmlns="http://www.w3.org/2000/svg" viewBox="0 0 512 512"><defs><style>.cls-1{fill:#ffca4f;}.cls-2{fill:#fed198;}.cls-3{fill:#f0b97d;}.cls-4{fill:#ff5b61;}.cls-5{fill:#666;}.cls-6{fill:#fff;}.cls-7{fill:#15bdb1;}.cls-8{fill:#dfe1e3;}.cls-9{fill:#20d0c2;}</style></defs><title>reading</title><path class="cls-1" d="M256,512c141,0,256-115,256-256S397,0,256,0,0,115,0,256,115,512,256,512Z"/><path class="cls-2" d="M228.9,191.9h54.3l4.4,45.8,13.3,9.8,79,25.1s10.4,5.7,13.4,21.6,4.5,51.2,6.9,72.7c-54.1,62-230.5,62.1-288.3,0,2.4-21.5,3.8-56.8,6.9-72.7s13.4-21.6,13.4-21.6l79.6-25.4,12.7-9.4,4.4-45.9Z"/><path class="cls-3" d="M237.5,237.4c-3.7-4.2-7.7-8.8-11.7-13.7l.7-7.2c3.8,4.4,7.6,8.5,11,12.3,4.5,5,32.1,4.9,36.6.2,3.7-3.9,7.6-7.9,11.4-12.2h0l.7,7.3c-4,4.7-8.2,9.2-12.1,13.5"/><path class="cls-4" d="M211.7,247.1l-79.6,25.4s-10.4,5.7-13.4,21.6-4.5,51.2-6.9,72.7c57.8,62.1,234.2,62,288.3,0-2.4-21.5-3.8-56.8-6.9-72.7s-13.4-21.6-13.4-21.6l-79-25.1c-13.1,38.5-76.6,36.9-89.1-.3Z"/><path class="cls-2" d="M188.2,122.5c-17-3-2.5,47.8,9.9,40.2l6.7,19.6c6,17.7,21.2,33.7,32.7,46.5,4.5,5,32.1,4.9,36.6.2,12.8-13.4,28-28.5,33.7-46.7l6.1-19.5c12.5,7.6,26.9-43.3,9.9-40.2C325,83,297,44.6,256,44.4c-41,.1-69,38.5-67.8,78.1Z"/><path class="cls-5" d="M304.9,52.1c4.8-.6,22.2,15.3,24.3,33.7s-1.1,37.3-1.1,37.3c-12.7-1.6-10.3,21.2-10.3,21.2l-3.7.2-2.6-13.2c-15.2-9.5,6-47.2-9.2-50.6-26.1,21.5-64.7,29.4-98.5,23.9-9.5,1.3,4.3,13.2.3,27-2.9,5.1-1.2,13.3-1.2,13.3l-4.4.6s-2.7-23-11.2-22.9c-3.9-10.6-3.1-17.3-2.4-26.8,3.9-52.7,70.7-85.7,120-43.7Z"/><path class="cls-6" d="M112.3,282c88.6-11.6,123.9,10.6,143.7,28.2-29.4-17-86-15.8-141.2-6L112.3,282Z"/><path class="cls-6" d="M399.7,282c-88.6-11.6-123.9,10.6-143.7,28.2,35.1-20.2,101.2-13,141.1-5.7l2.6-22.5Z"/><path class="cls-7" d="M90.5,307.7C153,293.5,223,289,257,308.5c34-19.6,102.1-15.1,164.6-.8-3.6,122.9-.6,20.3-5.4,184.4-3.7-.7-102.4-15.4-150.1-1.1H248.3c-52.4-15.2-149,.4-152.4,1.1-5-169.5-1.7-57.1-5.4-184.4Z"/><path class="cls-8" d="M98.4,296.7l1,9.8c60.4-12.8,125.9-16.1,158.5,2.6h0C257.7,308.9,209.5,272.7,98.4,296.7Z"/><path class="cls-8" d="M413.6,297.2l-1,9.8c-60.4-12.8-125.9-16.1-158.5,2.6h0c.2-.1,48.4-36.4,159.5-12.4Z"/><path class="cls-2" d="M124.5,357.8l-17.4.9-17.3,1.2c-7.2.5-6,13.4,1.2,12.5l18.9-2.2,14.3-1.2C131.3,368.4,129.3,357.5,124.5,357.8Zm-2.4,39.9h0l-27,3.2c-5.8.7-4.4,13.6,1.2,12.5l27.1-5.2c5.6-1.1,4.4-11.2-1.3-10.5Zm3.4-14h0c7.2-.7,8.6,10.4,1.5,11.3l-34.2,4.4c-7.1.9-8.3-11.8-1.2-12.5l33.9-3.2Zm4.8-14h0c8.4-.8,9.6,11.7,1.2,12.5l-39.7,3.7c-8.4.8-9.6-11.7-1.2-12.5l39.7-3.7Z"/><path class="cls-6" d="M122.2,360.6l.6,6.5,4.4-.4a9.45,9.45,0,0,0-.7-7Z"/><path class="cls-6" d="M129.7,372.8l.7,7.4,4.1-.4c1.4-2.8,1.4-5.5-.7-7.9Z"/><path class="cls-6" d="M124.3,386.6l.6,6.5,5-.5a11.26,11.26,0,0,0-.7-7Z"/><path class="cls-6" d="M120.2,401.1l.8,5.2,5-.9a7,7,0,0,0-.8-5.5Z"/><path class="cls-2" d="M387.5,357.8l17.4.9,17.3,1.2c7.2.5,6,13.4-1.2,12.5l-18.9-2.2L387.8,369c-7.1-.6-5.1-11.5-.3-11.2Zm2.4,39.9h0l27,3.2c5.8.7,4.4,13.6-1.2,12.5l-27.1-5.2c-5.6-1.1-4.4-11.2,1.3-10.5Zm-3.4-14h0c-7.2-.7-8.6,10.4-1.5,11.3l34.2,4.4c7.1.9,8.3-11.8,1.2-12.5l-33.9-3.2Zm-4.8-14h0c-8.4-.8-9.6,11.7-1.2,12.5l39.7,3.7c8.4.8,9.5-11.7,1.2-12.5Z"/><path class="cls-6" d="M389.8,360.6l-.6,6.5-4.4-.4a9.45,9.45,0,0,1,.7-7Z"/><path class="cls-6" d="M382.3,372.8l-.7,7.4-4.1-.4c-1.4-2.8-1.4-5.5.7-7.9l4.1.9Z"/><path class="cls-6" d="M387.7,386.6l-.6,6.5-5-.5a11.26,11.26,0,0,1,.7-7Z"/><path class="cls-6" d="M391.8,401.1l-.8,5.2-5-.9a6.67,6.67,0,0,1,.9-5.5l4.9,1.2Z"/><path class="cls-9" d="M248.4,491H266V304.4H248.4Z"/></svg>