<svg id="Layer_1" data-name="Layer 1" xmlns="http://www.w3.org/2000/svg" viewBox="0 0 508 508"><defs><style>.cls-1{fill:#ffca4f;}.cls-2{fill:#f0b97d;}.cls-3{fill:#e6e9ee;}.cls-4{fill:#f1543f;}.cls-5{fill:#ff7058;}.cls-6{fill:#324a5e;}.cls-7{fill:#2b3b4e;}.cls-8{fill:#acb3ba;}.cls-9{fill:#ced5e0;}.cls-10{fill:#fff;}.cls-11{fill:#fed198;}.cls-12,.cls-13{fill:none;stroke:#2c9984;stroke-miterlimit:10;stroke-width:1.55px;}.cls-13{stroke-linecap:round;}</style></defs><title>teacher</title><circle class="cls-1" cx="254" cy="254" r="254"/><path class="cls-2" d="M305.2,245.6c0,34.4-23.2,45.6-51.2,45.6s-51.2-11.2-51.2-45.6S225.6,166,254,166,305.2,211.2,305.2,245.6Z"/><path class="cls-3" d="M307.6,238l-2.8,142-16.4,46.4L259.6,508H246.8L218,428l-24-67.2V252.4l8.4-20,.4.4,2.8,2.8,31.6,32.8,5.6,5.6,10-5.6.4-.4,8.8-4.8h0l38.8-22,3.6-2h0Z"/><polygon class="cls-4" points="236.4 268.4 226 282.4 239.2 300 268.8 300 282 282.4 271.6 268.4 236.4 268.4"/><path class="cls-5" d="M295.6,470l-14.4,16.4h0l-18.8,21.2H245.2l-18.8-21.2h0L212,470l2-11.6,4.8-30.8,6.8-44h0L238.8,300h29.6L282,383.6h0l6.8,42.8,5.2,32Z"/><path class="cls-6" d="M148.4,411.2c-3.6,2.8-7.2,30.8-11.2,68.4a1.4,1.4,0,0,1-.8-.4,255.84,255.84,0,0,1-58.8-42.4c6.4-84,12.4-154,12.4-154h0v.4Z"/><path class="cls-7" d="M252,508h-6.4a53.61,53.61,0,0,1-8-.4,253.12,253.12,0,0,1-100-27.6,1.4,1.4,0,0,1-.8-.4c-15.2-100.4-44-189.6-46-196v-.4h0C165.6,267.2,204,219.6,208,214h0a.39.39,0,0,1,.4-.4,1.47,1.47,0,0,1-.4,1.2,97.43,97.43,0,0,0-2,21.2,259.53,259.53,0,0,0,1.6,28.8h0c0,2,.4,4,.4,6.4h0c3.2,33.2,10.4,74,17.6,112.4h0c12.4,65.2,26,123.2,26,123.2A1.47,1.47,0,0,1,252,508Z"/><path class="cls-8" d="M252,508h-6.4a53.61,53.61,0,0,1-8-.4c-3.6-6.8-7.2-13.6-10.8-20.8h0c-4.4-8.8-8.4-18.4-12.4-28-31.6-74.8-52.8-161.6-52.8-161.6,6.4.8,23.6-7.2,23.6-7.2l-23.6-27.6c25.2-6.4,42.8-40,46.8-47.6.4-.8.8-1.2.8-1.6a1.47,1.47,0,0,1-.4,1.2,97.43,97.43,0,0,0-2,21.2,259.53,259.53,0,0,0,1.6,28.8h0c0,2,.4,4,.4,6.4h0c3.2,33.2,10.4,74,17.6,112.4h0c12.4,65.2,26,123.2,26,123.2A3,3,0,0,0,252,508Z"/><path class="cls-7" d="M430.4,436.8a247.51,247.51,0,0,1-58.8,42.4,1.4,1.4,0,0,0-.8.4c-3.6-38-7.6-65.6-11.2-68.4l58-128v-.4h0S424,353.2,430.4,436.8Z"/><path class="cls-6" d="M417.6,282.8h0c-2,6.8-30.8,96-46,196.4a1.4,1.4,0,0,0-.8.4,250.2,250.2,0,0,1-100,27.6c-2.8,0-5.2.4-8,.4H256v-.8s13.6-58,26-123.2h0c7.2-38.4,14-79.6,17.6-112.4h0c0-2,.4-4,.4-6h0c.8-8.4,1.2-16.4,1.6-23.2.4-11.6-.4-20.8-2-27.2h0a1.47,1.47,0,0,0-.4-1.2h0l.4.4h0C303.2,218.4,341.6,266.8,417.6,282.8Z"/><path class="cls-9" d="M346.8,297.2S325.6,383.6,294,458.8c-4,9.6-8.4,18.8-12.4,28h0c-3.6,7.2-7.2,14.4-10.8,20.8-2.8,0-5.2.4-8,.4H256v-.8s13.6-58,26-123.2h0c7.2-38.4,14-79.6,17.6-112.4h0c0-2,.4-4,.4-6h0c.8-8.4,1.2-16.4,1.6-23.2.4-11.6-.4-20.8-2-27.2h0a1.47,1.47,0,0,0-.4-1.2h0a1.75,1.75,0,0,1,.4,1.2h0c3.6,7.2,21.6,41.2,46.8,47.6L323.2,290S340.4,298,346.8,297.2Z"/><path class="cls-10" d="M299.2,213.2S310.4,238.4,254,268l25.6,38C279.6,306.4,320,248.8,299.2,213.2Z"/><path class="cls-10" d="M208.8,213.2S197.6,238.4,254,268l-25.6,38C228.4,306.4,188,248.8,208.8,213.2Z"/><path class="cls-11" d="M320.8,130.4c0,49.6-30,114.4-66.8,114.4S187.2,180,187.2,130.4s30-65.2,66.8-65.2S320.8,80.8,320.8,130.4Z"/><path class="cls-11" d="M335.6,154.4c-4,9.2-11.6,14.8-16.8,12.8s-6.4-10.8-2.4-20,11.6-14.8,16.8-12.8C338.8,136,339.6,145.2,335.6,154.4Z"/><path class="cls-11" d="M172.4,154.4c4,9.2,11.6,14.8,16.8,12.8s6.4-10.8,2.4-20-11.6-14.8-16.8-12.8C169.2,136,168.4,145.2,172.4,154.4Z"/><path class="cls-6" d="M253.6,82.8c19.6-10.8,65.2-26,65.2,72,0,0,44-112.4-23.2-114,0,0-47.2-48-108.4,22l9.6-4.8s-49.2,28.8-7.2,96.8c0,0-7.2-98.4,47.2-71.6A17.86,17.86,0,0,0,253.6,82.8Z"/><path class="cls-12" d="M309.6,161.6h-40a8,8,0,0,1-8-8V138.8a8,8,0,0,1,8-8h40a8,8,0,0,1,8,8v14.8A8,8,0,0,1,309.6,161.6Z"/><path class="cls-12" d="M238.4,161.6h-40a8,8,0,0,1-8-8V138.8a8,8,0,0,1,8-8h40a8,8,0,0,1,8,8v14.8C246,158,242.4,161.6,238.4,161.6Z"/><path class="cls-13" d="M246.4,143.2a7.59,7.59,0,0,1,7.6-7.6,7.87,7.87,0,0,1,7.6,7.6"/></svg>